<?xml version="1.0" encoding="UTF-8" standalone="no"?>
<svg
   xmlns:dc="http://purl.org/dc/elements/1.1/"
   xmlns:cc="http://creativecommons.org/ns#"
   xmlns:rdf="http://www.w3.org/1999/02/22-rdf-syntax-ns#"
   xmlns:svg="http://www.w3.org/2000/svg"
   xmlns="http://www.w3.org/2000/svg"
   xmlns:sodipodi="http://sodipodi.sourceforge.net/DTD/sodipodi-0.dtd"
   xmlns:inkscape="http://www.inkscape.org/namespaces/inkscape"
   version="1.0"
   width="701.000000pt"
   height="715.000000pt"
   viewBox="0 0 701.000000 715.000000"
   preserveAspectRatio="xMidYMid meet"
   id="svg3344"
   inkscape:version="0.91 r13725"
   sodipodi:docname="gnu.svg">
  <defs
     id="defs3364" />
  <sodipodi:namedview
     pagecolor="#ffffff"
     bordercolor="#666666"
     borderopacity="1"
     objecttolerance="10"
     gridtolerance="10"
     guidetolerance="10"
     inkscape:pageopacity="0"
     inkscape:pageshadow="2"
     inkscape:window-width="2560"
     inkscape:window-height="1377"
     id="namedview3362"
     showgrid="false"
     inkscape:zoom="0.26405594"
     inkscape:cx="371.85117"
     inkscape:cy="446.875"
     inkscape:window-x="-8"
     inkscape:window-y="-8"
     inkscape:window-maximized="1"
     inkscape:current-layer="svg3344" />
  <metadata
     id="metadata3346">
Created by potrace 1.12, written by Peter Selinger 2001-2015
<rdf:RDF>
  <cc:Work
     rdf:about="">
    <dc:format>image/svg+xml</dc:format>
    <dc:type
       rdf:resource="http://purl.org/dc/dcmitype/StillImage" />
    <dc:title></dc:title>
  </cc:Work>
</rdf:RDF>
</metadata>
  <g
     transform="translate(0.000000,715.000000) scale(0.100000,-0.100000)"
     fill="#000000"
     stroke="none"
     id="wink">
    <path
       d="M1425 7139 c-203 -21 -393 -76 -580 -168 -344 -169 -534 -359 -695 -693 -67 -140 -91 -210 -122 -353 -19 -87 -22 -130 -22 -330 0 -293 21 -458 81 -650 65 -207 228 -461 418 -650 169 -170 356 -265 605 -311 52 -10 101 -22 108 -27 8 -6 12 -37 12 -91 0 -93 -16 -136 -75 -206 -47 -55 -60 -88 -69 -164 -9 -78 -32 -113 -114 -171 -104 -74 -152 -157 -152 -265 0 -90 55 -113 152 -64 55 28 103 32 209 19 78 -9 111 4 155 62 39 52 63 70 105 81 l36 9 -5 -252 c-8 -408 24 -608 140 -885 141 -333 376 -617 759 -915 51 -40 29 -13 -108 130 -285 300 -385 430 -493 645 -77 154 -140 359 -177 575 -15 92 -18 159 -16 412 1 190 5 309 12 321 7 13 26 23 53 27 81 14 193 55 272 100 44 25 83 42 86 38 16 -18 50 -285 50 -385 0 -129 8 -154 52 -166 41 -10 53 -41 68 -183 6 -57 15 -120 21 -141 9 -36 10 -36 72 -43 87 -10 103 -23 112 -87 10 -73 34 -98 96 -98 26 0 50 -4 53 -9 6 -9 -19 -62 -52 -108 -33 -47 -37 -97 -13 -193 17 -65 20 -100 15 -151 -6 -59 -3 -74 19 -123 29 -63 65 -90 133 -100 71 -9 84 -20 84 -71 0 -51 16 -65 74 -65 44 0 113 -26 120 -47 8 -19 -8 -48 -56 -103 -58 -66 -72 -105 -57 -154 20 -60 100 -139 237 -234 131 -91 162 -121 162 -156 0 -28 -52 -77 -113 -106 -69 -32 -97 -102 -66 -163 20 -37 78 -105 111 -128 l31 -23 -27 45 c-48 78 -59 106 -52 132 8 34 32 57 60 57 45 0 130 53 153 95 34 61 29 98 -27 213 -27 56 -47 102 -43 102 3 0 29 -20 58 -44 35 -30 65 -69 90 -117 22 -42 61 -95 95 -128 l57 -57 -58 -88 c-98 -148 -97 -228 5 -324 30 -29 57 -52 59 -52 3 0 -11 31 -30 69 -39 75 -39 98 -2 145 11 14 33 33 49 41 l27 14 -4 -43 c-7 -60 14 -95 121 -201 127 -127 209 -170 306 -163 l45 3 -57 27 c-45 21 -61 35 -78 68 -12 23 -19 44 -16 47 2 3 20 -7 38 -21 77 -58 185 -90 378 -110 l55 -6 -77 41 c-42 22 -84 52 -93 66 -18 27 -37 83 -28 83 3 0 43 -24 88 -54 101 -66 154 -85 254 -93 86 -6 165 6 231 36 l45 20 -75 -5 c-41 -3 -92 -2 -113 3 l-38 8 63 42 c77 51 178 149 224 217 19 28 34 54 34 58 0 4 -21 -9 -48 -29 -44 -34 -170 -98 -178 -91 -1 2 13 23 32 47 18 24 34 47 34 52 0 4 3 14 6 23 5 14 2 14 -26 5 -52 -19 -133 -6 -181 27 -54 37 -126 128 -141 176 -14 47 -9 53 104 129 139 94 171 141 172 249 0 55 -6 78 -42 156 -23 50 -42 97 -42 105 0 16 51 104 79 136 22 26 131 53 210 53 84 0 154 18 178 45 25 29 53 118 53 170 0 47 -37 171 -58 191 -8 9 -39 33 -68 55 l-52 38 19 50 c10 28 26 79 35 114 l16 64 56 2 c84 2 184 45 251 107 53 49 55 52 59 112 4 55 2 66 -22 96 -14 19 -46 49 -71 67 -24 17 -56 49 -69 70 l-25 38 67 47 c37 27 108 89 159 139 86 85 92 94 113 164 20 64 22 88 17 180 -9 150 -35 230 -90 275 -69 56 -100 66 -161 50 -28 -8 -78 -17 -111 -20 -56 -6 -63 -4 -93 21 -36 30 -49 68 -62 184 -5 43 -18 103 -29 135 -14 41 -16 56 -7 56 7 0 68 -36 135 -80 154 -101 204 -126 285 -145 35 -8 104 -34 152 -57 l88 -43 170 -4 c110 -2 188 1 223 9 88 19 153 91 153 168 0 43 -28 62 -88 62 -52 0 -71 10 -94 53 -12 22 -39 149 -33 155 1 2 53 16 114 32 317 83 514 246 727 600 170 282 225 514 211 885 -16 408 -98 676 -283 926 -213 288 -444 451 -780 548 -189 55 -526 69 -717 30 -135 -27 -204 -58 -372 -164 -140 -89 -216 -125 -258 -125 -20 1 -57 13 -109 35 -23 9 -23 -13 0 -80 26 -74 68 -121 142 -158 l65 -32 210 0 c177 1 227 4 320 23 196 40 328 25 511 -58 210 -95 395 -311 472 -550 32 -98 42 -172 42 -299 0 -226 -48 -386 -147 -492 -95 -101 -179 -118 -297 -60 -105 52 -189 139 -384 401 -332 446 -445 562 -637 656 -151 74 -236 94 -395 94 -147 0 -197 -12 -316 -75 -94 -49 -169 -103 -261 -186 -36 -32 -69 -59 -75 -59 -12 0 -44 21 -183 125 -212 159 -346 205 -589 205 -310 0 -502 -77 -711 -285 -49 -49 -202 -216 -339 -370 -376 -423 -446 -489 -569 -545 -130 -59 -284 7 -392 170 -79 119 -88 157 -89 370 -1 194 1 207 54 340 35 89 128 253 180 317 153 189 506 345 785 346 72 1 139 -7 240 -27 111 -23 167 -28 270 -28 324 0 469 80 492 270 l6 51 -59 -24 c-40 -17 -79 -25 -119 -25 -72 0 -121 21 -313 138 -142 86 -207 115 -311 137 -152 31 -473 43 -656 24z m595 -79 c107 -19 207 -57 319 -123 58 -33 144 -82 191 -106 80 -43 89 -45 165 -45 45 0 90 5 103 12 56 32 -13 -68 -72 -103 -86 -50 -137 -60 -316 -59 -134 0 -184 5 -265 23 -200 45 -378 38 -600 -25 -179 -50 -367 -164 -476 -289 -105 -119 -228 -358 -263 -513 -21 -94 -22 -354 -1 -435 26 -101 82 -196 159 -273 96 -96 162 -127 267 -126 88 2 135 16 216 63 91 55 152 117 473 484 340 389 436 488 542 558 136 89 250 118 478 120 134 1 166 -2 238 -22 162 -46 303 -133 454 -282 l78 -77 59 5 c80 8 100 1 160 -53 72 -65 91 -106 91 -198 0 -92 11 -117 61 -145 21 -12 45 -31 53 -42 12 -18 14 -18 20 -3 4 11 -7 28 -36 55 l-43 39 0 108 c0 90 -4 113 -22 147 -26 49 -81 102 -148 145 -42 26 -45 30 -20 24 118 -27 331 -154 401 -241 45 -55 72 -139 61 -185 -12 -48 -70 -118 -143 -173 -122 -92 -136 -165 -45 -231 27 -19 51 -43 54 -55 9 -32 -13 -78 -44 -94 -42 -22 -56 -18 -31 8 14 15 22 36 22 58 0 64 -82 128 -225 174 -152 50 -224 109 -249 208 -33 124 -37 273 -10 372 4 15 -1 13 -20 -9 l-25 -30 -96 90 c-167 155 -249 202 -398 225 -168 26 -356 -5 -522 -88 -186 -93 -321 -208 -528 -448 -314 -364 -399 -439 -642 -570 -60 -32 -113 -71 -160 -116 l-70 -68 -55 65 c-52 61 -57 65 -90 60 -19 -3 -60 -8 -91 -11 l-56 -6 -13 73 c-20 116 -19 114 -106 134 l-77 18 6 72 c4 39 9 96 13 126 l6 54 -56 34 c-31 19 -56 38 -56 44 0 5 19 41 41 80 l41 71 -45 85 -46 85 60 96 59 97 -22 92 -23 93 45 36 c95 78 89 68 100 170 5 52 14 98 21 102 7 4 49 20 95 35 l83 28 37 88 38 88 107 0 107 0 49 61 50 60 150 3 149 3 49 33 c54 37 38 39 142 -21 l42 -24 78 38 78 38 144 -50 c79 -28 146 -49 148 -47 2 2 -38 37 -90 78 l-94 75 -89 12 c-49 6 -133 21 -187 33 l-98 22 -111 -33 -110 -32 -98 22 -97 22 -95 -51 -94 -51 -100 5 -99 6 -45 -78 c-51 -87 -40 -81 -192 -99 l-57 -6 -52 -88 c-48 -83 -56 -90 -115 -119 -35 -18 -64 -36 -64 -42 0 -6 -7 -56 -15 -113 l-15 -102 -56 -51 -55 -51 25 -99 25 -99 -51 -60 c-29 -33 -58 -68 -66 -77 -12 -15 -7 -26 47 -97 l61 -79 -65 -52 -65 -52 67 -55 c111 -90 110 -73 13 -162 l-85 -79 90 -27 c50 -14 96 -28 103 -31 9 -2 -8 -32 -52 -89 -36 -46 -62 -86 -58 -89 4 -2 35 -8 69 -11 33 -4 66 -11 72 -15 8 -5 -4 -34 -39 -94 -27 -48 -50 -89 -50 -91 0 -3 41 -6 90 -7 l90 -3 -46 -69 -46 -69 58 7 c33 4 78 9 102 13 26 3 42 1 42 -5 0 -6 -9 -48 -20 -94 -11 -46 -20 -87 -20 -91 0 -5 34 19 75 53 49 40 77 57 79 48 3 -7 14 -60 27 -118 12 -58 23 -106 24 -108 2 -2 25 33 51 77 27 45 51 81 54 81 3 0 14 -30 24 -67 9 -38 22 -85 27 -106 l10 -38 62 77 62 78 5 -109 5 -108 64 91 c35 51 66 91 68 89 2 -2 -13 -79 -34 -171 -32 -143 -40 -166 -56 -166 -36 0 -213 40 -282 63 -178 61 -298 140 -441 290 -224 235 -360 500 -417 812 -19 103 -22 156 -22 380 0 252 1 263 28 366 101 389 328 692 677 905 206 125 367 180 635 218 60 8 552 -2 615 -14z m3783 -40 c196 -33 346 -91 484 -187 118 -82 324 -292 404 -412 186 -278 242 -486 242 -886 -1 -345 -28 -478 -144 -705 -204 -401 -442 -616 -747 -676 -42 -8 -87 -17 -98 -19 -18 -4 -26 5 -47 53 -21 47 -73 270 -64 278 1 1 29 -40 61 -92 32 -52 61 -94 64 -94 3 0 2 47 -2 105 -4 58 -4 105 -2 105 3 0 27 -28 53 -63 26 -35 52 -64 58 -66 5 -1 15 24 22 56 8 32 18 76 24 98 l11 39 46 -84 46 -85 23 114 c13 63 24 116 26 117 1 2 30 -21 64 -51 34 -30 63 -55 66 -55 2 0 -5 40 -16 90 -11 49 -18 92 -16 94 2 2 35 -1 72 -6 101 -14 103 -12 63 52 -20 30 -36 58 -36 63 0 4 34 7 75 7 41 0 75 3 75 8 0 4 -20 44 -44 89 -28 54 -39 84 -31 87 7 2 38 7 69 11 67 9 67 8 1 99 -25 35 -45 68 -45 74 0 5 36 20 80 33 44 12 80 27 80 32 0 5 -31 41 -69 81 l-70 71 70 59 c38 33 69 63 69 67 0 4 -22 27 -50 50 -27 23 -50 46 -50 51 0 5 22 41 50 80 30 43 47 75 42 82 -5 6 -30 37 -55 69 -26 33 -47 66 -47 75 1 10 9 53 20 97 l19 80 -49 50 -49 50 -13 105 -13 104 -56 33 c-48 29 -62 44 -102 117 l-47 84 -67 7 c-107 10 -105 10 -148 91 l-40 76 -86 -7 -86 -6 -83 49 -84 49 -70 -18 c-94 -25 -108 -24 -209 10 l-86 29 -71 -18 c-40 -10 -104 -24 -144 -30 -39 -6 -81 -13 -93 -16 -19 -4 -204 -154 -190 -154 3 0 64 23 137 50 l131 51 68 -37 67 -37 59 37 58 38 46 -33 c46 -32 47 -32 175 -34 l129 -2 41 -56 41 -56 95 -3 95 -3 33 -81 34 -82 83 -32 82 -32 7 -60 c3 -34 6 -75 6 -93 0 -27 9 -40 59 -81 33 -27 60 -56 60 -64 0 -8 -8 -49 -18 -91 l-18 -77 49 -86 c26 -47 48 -92 48 -101 0 -8 -16 -48 -36 -88 l-37 -74 37 -65 c20 -36 36 -69 36 -74 0 -5 -23 -25 -51 -43 -39 -27 -49 -40 -45 -55 2 -12 8 -65 11 -118 6 -78 5 -99 -6 -102 -8 -3 -39 -12 -70 -20 -54 -15 -57 -18 -64 -53 -3 -21 -11 -60 -17 -87 l-10 -48 -78 6 -78 7 -44 -55 c-23 -30 -47 -55 -51 -55 -4 -1 -32 25 -61 57 -42 45 -76 68 -158 109 -157 78 -287 208 -523 522 -179 239 -279 332 -470 439 -153 85 -291 117 -406 93 -60 -12 -199 -62 -199 -72 0 -3 36 -29 79 -57 98 -64 211 -172 241 -232 18 -34 24 -62 24 -115 1 -76 -12 -109 -65 -170 l-31 -35 95 0 c52 0 108 -3 125 -6 33 -7 31 -3 73 -194 10 -48 20 -63 81 -123 82 -81 106 -128 114 -229 8 -86 -3 -127 -46 -187 l-30 -41 -83 1 c-65 0 -101 -5 -159 -25 -41 -14 -78 -26 -83 -26 -4 0 -5 26 -2 57 5 44 11 61 31 77 14 12 33 41 41 66 19 54 27 60 91 60 36 0 59 -6 77 -20 33 -26 41 -25 22 3 -21 33 -57 47 -115 47 -28 0 -50 5 -50 10 0 21 29 66 64 99 52 50 49 99 -8 120 -34 14 -91 0 -129 -29 -34 -27 -83 -126 -98 -198 -14 -71 -7 -279 13 -342 8 -25 54 -99 103 -165 156 -211 234 -336 321 -513 76 -156 92 -181 153 -241 43 -44 84 -74 114 -86 43 -16 50 -16 114 -1 113 28 116 28 162 4 72 -37 86 -76 86 -233 0 -117 -3 -135 -25 -180 -13 -27 -57 -82 -96 -122 -109 -109 -232 -184 -419 -254 l-100 -38 50 0 c45 -1 134 10 207 25 22 4 31 -1 58 -40 17 -25 55 -61 84 -80 87 -55 97 -125 26 -174 -55 -37 -103 -43 -334 -46 -213 -2 -225 -3 -346 -34 -244 -63 -351 -73 -511 -46 -122 20 -187 50 -254 118 -59 59 -185 246 -286 425 -35 63 -82 134 -105 159 -39 44 -43 46 -105 49 l-64 3 47 -16 c25 -9 60 -31 77 -48 18 -18 78 -123 135 -234 l103 -200 6 -124 c12 -214 42 -337 123 -498 44 -89 77 -118 150 -132 95 -17 195 7 379 92 166 77 346 130 439 130 58 0 158 -26 261 -67 53 -22 71 -34 76 -53 23 -81 -6 -261 -44 -282 -13 -6 -58 -9 -121 -5 -192 9 -561 -31 -821 -89 -169 -38 -236 -41 -325 -14 -134 40 -220 112 -259 214 -45 121 -50 261 -17 481 30 196 39 307 32 403 -7 100 -28 227 -39 239 -13 13 -14 -3 -5 -77 13 -96 3 -409 -17 -570 -52 -419 -53 -465 -10 -558 29 -63 96 -136 150 -165 37 -20 55 -22 235 -23 254 -1 238 1 300 -39 69 -44 98 -44 186 0 46 23 82 35 109 34 52 -1 121 -22 118 -37 -2 -6 -4 -35 -5 -65 -2 -49 2 -61 42 -121 35 -54 44 -79 48 -124 6 -70 -10 -99 -92 -171 l-61 -53 -3 28 c-6 57 -12 58 -43 10 -34 -50 -129 -126 -115 -90 48 116 57 191 34 269 l-12 40 -6 -65 c-12 -123 -73 -197 -232 -280 -202 -106 -246 -185 -178 -320 17 -33 26 -60 20 -60 -6 0 -35 24 -64 53 -65 63 -86 121 -86 239 l0 77 -53 25 c-69 33 -155 98 -189 142 -34 45 -53 130 -40 177 6 19 21 52 36 73 14 21 24 40 22 42 -2 2 -19 -4 -36 -13 -45 -23 -115 -23 -141 1 -19 17 -20 25 -14 129 l7 110 -49 -52 c-26 -29 -70 -63 -98 -76 -97 -48 -112 -86 -91 -230 l8 -58 -45 31 c-61 41 -107 95 -107 126 0 13 14 52 31 86 40 79 49 160 24 209 -53 101 -111 146 -218 166 -94 17 -167 52 -189 91 -22 39 -38 163 -34 262 3 88 13 113 82 209 26 37 30 67 13 104 -8 18 -24 26 -72 36 -99 20 -104 23 -109 76 -7 60 -52 119 -94 123 -83 7 -95 13 -110 47 -9 21 -14 70 -14 127 0 121 -5 135 -51 158 -55 29 -61 45 -53 162 5 79 3 117 -10 164 -10 38 -16 102 -16 167 l0 104 89 76 c91 77 141 136 227 266 40 60 50 70 56 55 4 -11 21 -56 38 -101 29 -77 70 -147 133 -224 22 -28 18 -14 -23 73 -84 176 -98 299 -60 523 12 66 23 181 25 255 5 144 0 140 -30 -25 -65 -355 -268 -670 -559 -869 -129 -88 -233 -132 -426 -177 -152 -37 -210 -62 -278 -122 -80 -71 -107 -82 -163 -68 -56 15 -102 5 -193 -41 l-59 -30 5 52 c5 45 11 58 54 101 27 28 74 66 105 85 62 37 70 51 94 158 20 90 45 142 90 191 50 54 55 71 55 188 0 112 21 201 95 407 152 424 308 669 510 802 196 129 304 176 445 190 61 6 154 25 222 45 231 67 314 76 454 47 108 -23 212 -7 325 47 84 41 157 64 225 72 l41 5 17 -61 c17 -59 44 -109 76 -135 49 -42 126 -83 191 -103 151 -45 219 -87 219 -134 0 -30 -30 -55 -75 -62 -38 -6 -38 -6 -17 -24 50 -40 158 -31 204 18 16 17 23 39 26 81 l4 59 -51 36 c-54 39 -70 72 -52 106 6 11 48 51 94 89 171 143 200 202 162 330 -36 119 -264 298 -457 358 l-57 17 75 59 c92 72 182 122 254 139 82 19 268 14 365 -10 166 -43 312 -140 455 -303 45 -51 167 -205 270 -343 315 -418 456 -539 608 -521 157 19 269 136 333 351 27 89 36 303 20 430 -22 164 -89 337 -178 462 -87 123 -263 261 -403 317 -158 63 -313 74 -515 36 -70 -14 -172 -23 -281 -27 -146 -5 -178 -3 -224 12 -51 17 -121 70 -140 105 -8 15 -3 17 43 17 67 1 106 19 300 136 169 103 281 148 415 167 98 13 374 3 505 -20z m-908 -1746 c146 -30 260 -95 359 -202 54 -59 202 -265 231 -323 13 -25 36 -88 51 -140 14 -52 40 -121 56 -154 40 -80 148 -235 219 -315 65 -74 74 -93 84 -176 14 -118 68 -184 154 -184 48 0 50 -8 16 -49 -45 -53 -92 -63 -271 -59 -158 3 -159 4 -224 37 -35 18 -102 44 -148 58 -116 33 -180 63 -275 129 -44 30 -114 74 -153 95 l-73 40 -30 92 -31 91 32 33 32 33 -29 0 c-17 0 -61 -15 -100 -34 -38 -19 -89 -37 -112 -41 -39 -6 -43 -5 -58 24 l-16 31 51 0 c95 0 138 46 128 135 -5 39 -3 45 13 45 10 0 36 -18 59 -41 50 -51 66 -47 63 15 -4 62 -24 99 -70 127 -21 12 -40 24 -42 26 -2 1 14 22 37 47 34 36 41 53 47 100 10 74 -2 180 -25 233 -10 23 -48 73 -84 111 -71 77 -97 135 -77 179 13 28 70 65 91 59 8 -3 51 -12 95 -22z m-40 -1206 c16 -57 39 -134 52 -172 14 -43 23 -93 23 -130 l0 -61 -58 110 c-32 61 -86 154 -120 207 -34 54 -62 100 -62 103 0 3 10 5 23 5 12 0 38 8 57 19 19 10 40 19 46 20 6 0 23 -45 39 -101z m-1131 -1745 c102 -110 210 -152 416 -160 115 -5 136 -3 265 27 165 37 257 45 426 35 l124 -7 -33 -67 c-18 -37 -36 -85 -39 -107 l-5 -39 -139 3 c-166 4 -239 -11 -399 -83 -223 -100 -270 -115 -372 -115 -68 0 -104 5 -133 19 -47 21 -112 89 -121 128 -4 15 -15 41 -25 58 -30 50 -62 203 -68 323 l-6 113 30 -38 c16 -21 52 -61 79 -90z"
       id="path3350" />
    <path
       d="M3043 5183 c-35 -44 -86 -73 -126 -73 -25 0 -51 -18 -59 -42 -3 -7 -31 -12 -76 -14 -50 -2 -79 -8 -95 -20 -36 -27 -104 -125 -111 -161 -5 -22 -18 -38 -42 -52 -20 -12 -41 -36 -50 -58 -37 -87 -50 -106 -98 -140 -78 -56 -77 -58 3 -18 41 20 100 61 130 90 31 29 75 62 99 74 33 17 42 27 42 47 0 31 44 119 75 150 15 15 36 24 56 24 28 0 31 -3 25 -22 -3 -13 -6 -60 -6 -105 0 -74 -3 -84 -27 -114 l-27 -32 25 8 c179 52 307 245 297 443 l-3 56 -32 -41z"
       id="path3352" />
    <path
       d="M3525 5073 c9 -47 19 -60 63 -79 20 -8 42 -23 49 -34 10 -14 26 -20 54 -20 l40 0 54 -112 c29 -62 58 -137 64 -165 6 -32 32 -88 66 -143 65 -104 83 -121 56 -53 -10 26 -27 84 -36 128 -20 90 -34 122 -65 148 -27 23 -78 132 -115 247 -33 101 -38 109 -63 87 -26 -23 -58 -21 -121 8 l-53 25 7 -37z"
       id="path3354" />
    <path
       d="M3004 4614 c-11 -43 2 -112 29 -153 33 -50 132 -115 216 -142 53 -18 98 -23 226 -26 150 -4 202 3 182 23 -4 4 -83 11 -175 15 -172 7 -198 11 -270 48 -80 41 -150 136 -168 229 -7 38 -31 42 -40 6z"
       id="path3356" />
    <path
       d="M3878 3689 c-61 -14 -161 -64 -192 -95 -43 -44 -67 -99 -73 -172 -7 -89 22 -168 85 -232 26 -27 41 -37 37 -25 -4 11 -10 42 -13 70 -5 45 -4 49 11 36 27 -22 45 -6 52 46 9 68 20 90 57 113 41 25 83 25 131 1 20 -10 37 -15 37 -11 0 17 -46 63 -76 76 -73 31 -151 11 -202 -52 -17 -21 -34 -35 -38 -31 -13 12 7 74 36 114 54 73 175 111 317 99 97 -9 123 -19 223 -86 47 -32 121 -77 164 -101 44 -23 116 -71 160 -104 120 -91 159 -109 217 -95 l34 7 -42 8 c-48 8 -69 22 -179 118 -44 38 -119 94 -169 124 -49 31 -118 76 -153 101 -77 55 -135 77 -236 91 -89 13 -136 13 -188 0z"
       id="path3358" />
    <path
       d="M3975 3315 c-22 -8 -41 -15 -42 -15 -1 0 -7 -16 -13 -35 -16 -49 -5 -89 36 -125 37 -32 95 -41 134 -20 23 12 34 55 20 80 -9 17 -8 20 10 20 58 0 179 -100 222 -183 12 -23 32 -71 45 -107 l23 -65 -6 74 c-21 262 -232 447 -429 376z"
       id="path3360" />
  </g>
  <g
     id="smile"
     transform="matrix(1.3099669,0,0,1.3099669,-0.517822,-0.02204722)">
    <g
       id="g2490">
      <path
         inkscape:connector-curvature="0"
         id="path2492"
         d="m 112.993,304.372 c -3.634,0.247 -8.365,1.875 -11.539,7.564 -2.591,4.646 -8.661,5.387 -11.495,4.451 -4.721,-1.56 -10.755,-2.642 -16.6,1.523 -5.845,4.164 -12.157,1.015 -11.05,-6.576 1.107,-7.59 3.849,-14.351 11.127,-18.538 15.895,-9.144 4.848,-15.508 13.572,-24.685 8.741,-9.195 6.81,-12.009 6.52,-24.497 C 63.985,239.176 47.241,230.661 28.544,207.301 9.847,183.94 2.599,164.711 0.661,135.423 -1.277,106.135 0.403,87.154 13.057,62.843 25.711,38.532 39.034,26.829 62.122,14.69 85.21,2.553 107.832,-0.354 128.742,0 c 20.91,0.353 34.843,1.885 46.658,8.626 11.814,6.741 22.622,15.224 29.512,15.285 6.891,0.061 11.582,-1.744 14.931,-4.31 0.894,22.703 -19.539,24.675 -37.819,25.155 -18.281,0.479 -29.514,-7.083 -46.351,-4.27 -16.837,2.813 -44.404,10.475 -57.833,33.85 -13.429,23.375 -13.887,31.638 -12.771,51.24 1.116,19.603 17.988,34.228 27.512,34.387 9.523,0.159 11.649,-2.599 19.985,-8.036 8.337,-5.438 50.896,-58.122 65.418,-69.956 14.523,-11.834 28.854,-15.488 44.328,-15.678 15.474,-0.19 19.428,0.335 31.908,5.45 12.48,5.114 20.149,14.533 30.211,20.291 5.143,-3.027 8.338,-7.547 13.057,-10.996 16.877,-12.335 25.646,-15.659 45.705,-13.707 11.529,1.122 26.066,7.708 34.74,15.25 15.445,13.429 28.205,32.125 38.516,46.328 8.029,11.061 17.477,24.295 30.965,28.432 14.727,4.515 25.809,-14.559 27.436,-25.139 0.922,-5.995 2.125,-11.249 2.135,-17.847 0.01,-6.599 -0.664,-14.607 -2.566,-21.484 -1.902,-6.877 -5.16,-13.72 -8.688,-19.394 -5.742,-9.235 -15.137,-18.899 -24.912,-23.871 -5.486,-2.79 -18.393,-7.863 -26.529,-8.041 -9.969,-0.216 -17.564,3.133 -26.781,3.761 -11.156,0.761 -31.084,3.269 -39.83,-5.35 -5.566,-5.485 -6.266,-9.144 -7.217,-16.296 2.459,2.026 5.898,3.358 8.959,3.617 6.986,0.59 13.527,-5.114 19.166,-8.419 4.645,-2.723 11.223,-7.589 17.324,-10.048 15.676,-6.32 34.932,-6.138 51.48,-4.445 13.264,1.356 30.461,7.257 42.094,13.84 11.688,6.612 22.951,17.761 31.201,28.271 10.379,13.224 16.053,24.57 19.812,41.063 4.805,21.062 6.137,52.702 0.328,73.469 -4.578,16.365 -19.779,41.504 -32.719,53.827 -12.762,12.155 -27.498,18.022 -44.256,21.231 0.656,3.382 0.764,6.536 1.631,9.309 1.232,3.936 3.588,8.324 8.428,6.936 1.93,-0.553 2.963,-1.032 5.508,1.194 2.543,2.226 1.219,10.825 -5.938,14.684 -3.629,1.957 -7.459,2.382 -13.271,2.498 -5.812,0.116 -14.883,0.141 -21.193,-0.964 -6.309,-1.104 -10.078,-6.111 -17.066,-6.895 -10.799,-1.208 -19.068,-9.01 -27.727,-14.59 -3.613,-2.329 -4.832,-2.353 -6.914,-3.53 1.125,3.444 2.625,7.021 3.373,10.332 0.75,3.311 0.43,6.378 0.828,9.028 0.396,2.648 1.131,4.707 1.559,6.855 1.73,1.547 2.283,3.9 5.189,4.64 2.908,0.739 7.461,-0.412 10.436,-0.812 2.975,-0.4 4.969,-2.021 7.303,-1.577 2.336,0.443 4.549,2.115 6.506,3.682 1.957,1.567 3.639,1.796 5.223,5.706 1.584,3.91 3.037,11.917 3.254,17.269 0.217,5.352 -0.383,10.183 -1.969,14.43 -1.586,4.247 -2.98,6.13 -7.275,10.336 -4.295,4.207 -11.289,10.38 -18.268,14.68 1.285,1.903 1.855,3.645 3.859,5.71 2.004,2.066 6.182,4.381 8.041,6.56 1.857,2.179 2.799,3.742 2.826,6.186 0.029,2.443 -0.09,5.619 -2.074,8.283 -4.941,6.633 -10.785,7.821 -17.891,10.941 1.195,7.462 2.17,12.793 0.443,20.244 -0.705,3.036 -2.271,9.92 -6.016,11.686 -3.746,1.766 -10.969,0.911 -15.541,1.637 -4.572,0.727 -7.131,1.417 -10.695,2.125 -2.166,3.131 -5.391,6.586 -6.496,9.392 -1.107,2.807 -0.773,3.813 0.156,6.679 0.929,2.866 4.092,7.039 4.988,10.395 0.896,3.356 1.07,6.969 0.234,10.334 -0.838,3.365 -2.271,5.807 -5.139,8.795 -2.867,2.989 -8.508,5.336 -11.318,7.758 -2.812,2.423 -5.611,2.714 -4.844,6.723 1.055,5.506 9.1,14.436 14.92,16.562 3.488,1.275 8.17,0.873 12.406,-0.915 -0.287,4.703 -4.357,7.873 -7.016,10.996 7.201,-2.059 14.184,-6.001 19.014,-11.226 -1.498,4.538 -6.652,11.823 -14.361,18.22 -7.709,6.397 -7.662,5.088 -11.494,7.633 6.992,1.405 13.494,1.025 18.91,0.052 -2.969,1.637 -7.836,3.939 -14.283,4.616 -6.447,0.676 -10.422,0.198 -16.232,-1.213 -5.811,-1.412 -11.115,-6.694 -18.156,-10.335 0.686,2.612 1.174,5.753 4.135,8.439 2.961,2.686 7.441,4.052 12.203,6.375 -6.062,-0.688 -12.432,-0.896 -18.389,-2.209 -4.41,-0.973 -7.373,-2.005 -10.6,-3.603 -3.225,-1.598 -5.715,-3.929 -8.572,-5.893 1.369,2.615 1.775,5.691 4.105,7.847 2.33,2.156 6.117,2.959 9.18,4.44 -3.195,-0.07 -6.268,0.623 -9.58,-0.21 -3.314,-0.833 -6.422,-2.142 -9.867,-4.68 -3.445,-2.538 -6.998,-5.663 -9.938,-8.858 -2.938,-3.195 -6.566,-7.337 -7.664,-10.283 -1.1,-2.947 0.66,-5.008 0.99,-7.509 -2.029,1.333 -4.525,2.067 -6.084,4.002 -1.559,1.935 -2.941,3.702 -2.251,7.075 0.691,3.373 3.804,7.496 6.005,11.248 -6.568,-5.371 -10.236,-7.439 -11.799,-13.918 -1.463,-6.066 2.322,-11.572 5.199,-16.159 1.429,-2.278 3.567,-4.398 4.903,-6.597 -2.967,-2.903 -6.358,-5.398 -8.901,-8.709 -2.542,-3.31 -3.61,-7.79 -6.205,-10.957 -2.596,-3.168 -6.088,-5.173 -9.129,-7.756 2.673,5.742 7.066,12.785 8.02,17.229 0.953,4.444 -1.069,7.164 -2.646,9.563 -1.578,2.399 -4.124,2.934 -6.539,4.408 -2.415,1.475 -6.171,0.312 -7.61,2.501 -1.438,2.188 -1.824,5.48 -0.449,7.648 l 5.64,8.902 c -2.078,-1.049 -5.658,-4.1 -7.272,-6.264 -1.614,-2.164 -4.09,-4.163 -4.429,-7.089 -0.339,-2.925 -0.504,-5.464 1.391,-8.07 1.896,-2.605 7.086,-3.477 9.409,-5.48 2.323,-2.003 3.626,-3.307 3.493,-5.896 -0.132,-2.589 -2.661,-4.441 -4.835,-6.073 -6.637,-4.978 -15.151,-9.565 -20.787,-15.565 -3.184,-3.39 -4.712,-6.127 -5.352,-8.466 -0.639,-2.338 0.037,-4.162 1.619,-7.038 1.582,-2.877 7.007,-6.718 7.667,-9.843 0.659,-3.124 -2.081,-3.795 -4.554,-4.897 -2.473,-1.102 -7.17,0.565 -9.464,-1.352 -2.293,-1.917 0.674,-5.945 -1.911,-8.154 -2.584,-2.209 -8.499,-0.976 -11.552,-3.352 -3.053,-2.377 -4.315,-5.327 -5.367,-8.775 -1.052,-3.448 -1.171,-7.225 -0.458,-9.722 0.713,-2.497 2.855,-2.934 4.147,-4.228 1.292,-1.294 2.413,-2.367 0.691,-4.297 -1.722,-1.929 -7.365,0.108 -10.609,-2.369 -3.244,-2.477 -1.258,-8.41 -3.552,-10.911 -2.293,-2.501 -6.409,-1.522 -8.581,-2.321 -2.171,-0.799 -3.023,2.02 -4.355,-2.438 -1.332,-4.459 -1.368,-17.75 -3.16,-22.71 -1.792,-4.96 -5.311,-0.335 -6.945,-5.265 -1.634,-4.929 -0.085,-12.812 -0.821,-20.257 l -3.335,-20.257 c -11.634,7.815 -19.314,10.269 -31.813,12.477 -1.043,30.582 -3.916,48.591 6.464,82.52 10.38,33.928 31.387,53.924 59.726,82.649 -37.395,-28.016 -55.248,-50.792 -66.422,-79.97 -11.176,-29.182 -9.03,-53.586 -7.906,-81.686 z M 311.701,292.08 c 2.877,0.129 6.373,0.859 8.393,2.171 2.021,1.312 4.166,2.384 6,4.251 4.576,4.66 8.008,10.28 9.525,16.738 0.967,4.117 1.111,9.397 1.463,14.231 -1.385,-4.468 -2.316,-9.127 -4.289,-13.13 -3.111,-6.312 -8.396,-12.473 -14.959,-15.31 -2.166,-0.938 -3.611,-0.764 -4.803,-0.598 0.533,0.895 1.426,1.645 1.465,2.956 0.039,1.311 -0.254,3.876 -2.477,4.954 -3.584,1.739 -7.568,0.516 -10.336,-1.931 -2.791,-2.466 -3.742,-6.638 -2.281,-10.223 1.741,-4.272 8.375,-4.283 12.299,-4.109 z M 275.629,286 c 0.361,-7.345 3.012,-13.539 9.594,-17.141 3.404,-1.862 8.648,-4.27 13.467,-4.836 4.629,-0.543 15.889,-0.146 22.662,2.945 5.201,2.374 8.744,6.07 13.311,8.771 4.566,2.702 7.814,4.513 12.162,7.543 6.674,4.651 10.586,9.772 15.213,12.842 2.225,1.475 5.355,1.256 8.309,2.158 -2.297,0.682 -5.299,1.434 -7.777,0.642 -3.09,-0.988 -7.41,-3.813 -9.807,-5.838 -4.236,-3.578 -6.432,-5.324 -11.055,-8.023 -2.76,-1.608 -7.305,-3.503 -10.338,-5.481 -3.035,-1.978 -8.303,-6.318 -11.219,-7.787 -3.707,-1.866 -10.381,-2.904 -14.508,-2.783 -5.686,0.166 -13.916,1.104 -18.316,5.096 -4.371,3.968 -6.031,7.459 -5.045,12.612 1.646,-1.896 2.742,-4.278 4.391,-5.688 3.416,-2.918 7.336,-3.059 11.588,-2.506 4.777,0.622 7.182,3.381 8.76,7.916 -1.062,-0.78 -3.014,-2.493 -4.555,-3.024 -3.617,-1.248 -6.352,-0.864 -9.74,0.953 -4,2.146 -2.912,5.322 -3.488,8.854 -0.264,1.629 -0.879,2.941 -1.318,4.412 -1.504,-0.398 -2.895,-1.024 -4.033,-2.152 0.047,1.65 -0.193,3.093 0.145,4.949 0.336,1.855 1.24,4.059 1.859,6.088 -2.785,-2.786 -5.635,-5.38 -7.434,-8.977 -1.801,-3.599 -3.021,-7.593 -2.828,-11.545 z m 4.82,-53.46 c 2.053,-3.047 2.654,-7.721 3.92,-11.521 -0.506,4.813 0.467,10.106 -1.883,13.592 -2.35,3.486 -6.477,2.875 -9.896,3.889 2.66,-2.028 5.805,-2.913 7.859,-5.96 z m -49.151,71.368 c 2.636,-2.134 9.75,-0.428 15.071,-0.047 -3.824,0.979 -7.648,1.959 -11.472,2.938 -0.356,1.301 -0.195,2.792 -1.068,3.901 -0.874,1.11 -2.534,1.521 -3.8,2.28 0.125,-3.418 -1.367,-6.939 1.269,-9.072 z m 37.491,-148.22 c 3.176,1.71 7.207,3.971 10.012,4.041 2.805,0.07 3.539,-1.834 5.189,-2.933 2.596,8.465 5.576,17.766 9.996,25.447 1.852,3.218 3.033,1.722 4.441,4.956 1.406,3.233 2.031,9.812 3.365,13.943 1.336,4.131 3.078,7.171 4.617,10.756 -3.908,-5.537 -8.957,-12.597 -11.135,-17.205 -2.176,-4.607 -0.783,-5.008 -2.545,-9.396 -1.762,-4.388 -5.324,-11.228 -7.986,-16.842 -1.906,0.253 -4.266,0.6 -5.715,0.153 -1.449,-0.447 -1.16,-1.988 -2.469,-2.984 -1.311,-0.996 -3.514,-0.61 -5.35,-2.2 -1.836,-1.589 -2.254,-4.85 -2.42,-7.736 z m -17.101,41.769 c 2.989,-0.262 6.701,0.539 9.5,0.38 2.799,-0.159 4.797,-0.885 7.196,-1.328 -0.445,-4.216 -0.023,-11.962 -3.915,-14.777 -2.514,-1.818 -12.839,-0.449 -15.597,0.146 -6.206,1.338 -13.433,5.042 -19.435,7.358 5.752,-4.018 10.721,-7.742 17.62,-9.816 4.147,-1.247 13.825,-2.868 18.105,-1.712 1.954,0.527 2.349,1.336 3.534,2.992 4.074,5.688 4.062,10.604 5.119,17.23 1.039,1.619 2.146,2.699 2.988,4.369 0.84,1.67 1.316,4.298 1.551,6.446 -1.066,-1.546 -0.414,-3.485 -3.367,-4.636 -2.955,-1.151 -7.479,-0.076 -11.46,0.34 2.902,2.094 4.344,4.111 4.455,8.538 0.13,5.198 -4.271,8.939 -8.866,9.295 -6.379,0.495 -9.668,-0.906 -12.248,-6.358 -1.13,-2.388 -0.311,-5.261 -0.405,-7.589 -7.665,0.533 -7.54,0.283 -13.142,4.954 3.045,4.461 4.963,7.026 9.995,9.695 2.822,1.498 6.017,2.954 9.514,3.549 3.498,0.595 9.235,1.17 12.909,0.606 3.675,-0.564 5.757,-1.613 8.481,-4.132 2.725,-2.52 2.975,-6.128 4.039,-8.98 -0.242,2.745 -0.557,6.241 -1.576,8.232 -3.1,6.053 -8.461,7.847 -14.862,7.867 -6.144,0.02 -13.744,-1.397 -19.46,-3.767 -4.57,-1.894 -12.146,-7.258 -13.944,-11.918 -1.229,-3.184 -0.256,-7.091 -0.385,-10.637 6.328,-4.208 7.894,-3.173 15.381,-4.405 3.132,-0.516 5.286,-1.679 8.275,-1.942 z m -36.861,-28.501 c 0.178,-2.521 0.457,-2.467 0.686,-3.701 -5.765,-1.542 -8.077,2.198 -11.457,9.144 -1.265,2.599 -0.013,4.146 -1.37,5.857 -1.355,1.711 -3.539,1.471 -5.74,3.114 -2.201,1.642 -4.382,4.787 -6.44,6.488 -4.223,3.491 -9.931,5.622 -14.829,7.971 3.345,-2.468 9.836,-6.211 11.936,-9.797 1.114,-1.901 0.949,-5.486 2.683,-7.195 1.733,-1.71 2.34,-2.893 4.578,-3.329 2.238,-0.436 1.338,-3.03 2.06,-5.092 0.722,-2.062 2.16,-3.526 3.69,-5.586 1.53,-2.06 3.46,-5.153 6.481,-6.276 3.021,-1.124 7.732,0.091 10.019,-0.556 2.286,-0.647 0.973,-2.309 2.634,-3.307 1.663,-0.998 4.896,-0.558 7.117,-1.625 3.937,-1.893 5.82,-5.053 8.188,-8.436 0.344,7.282 0.26,12.525 -2.357,19.376 -2.947,7.711 -5.934,12.253 -14.298,16.995 -2.882,1.633 -5.75,2.2 -8.139,3.057 1.393,-1.9 3.387,-2.725 4.18,-5.7 0.791,-2.977 0.2,-8.88 0.378,-11.402 z m 135.038,35.507 c -3.977,0.259 -4.92,-0.264 -8.102,1.98 1.725,2.684 3.449,5.368 5.172,8.052 -0.152,-5.298 0.364,-6.36 2.93,-10.032 z m -10.42,-3.85 c 5.508,-2.346 10.307,-4.244 16.299,-4.619 2.402,-0.151 6.131,0.221 8.557,0.331 2.066,-3.042 4.699,-5.441 5.664,-8.913 0.639,-2.303 0.324,-12.992 -0.807,-15.767 -3.295,-8.076 -6.498,-8.417 -11.033,-13.043 -3.291,-3.355 -3.422,-8.464 -4.406,-14.189 -0.361,-2.103 -1.393,-4.764 -1.877,-6.934 -5.928,-0.999 -12.303,-1.328 -19.123,-0.987 3.307,-3.172 6.504,-6.07 7.453,-10.832 0.947,-4.762 0.176,-10.617 -2.531,-14.887 -2.707,-4.27 -7.031,-7.99 -11,-11.469 -3.971,-3.479 -9.662,-6.351 -13.424,-9.197 4.893,-1.752 9.889,-4.326 14.682,-5.255 12.486,-2.422 23.244,1.282 35.287,8.563 7.002,4.235 12.793,8.258 20.113,15.921 7.318,7.662 16.395,21.717 23.48,30.052 7.085,8.335 12.805,14.927 18.986,19.898 6.182,4.972 11.777,6.388 17.664,9.581 l 9.176,9.744 7.426,-9.189 11.949,1.351 2.469,-13.412 10.967,-3.005 -1.789,-18.08 7.885,-5.596 -5.926,-11.249 6.021,-12.292 -7.85,-14.051 3.027,-13.529 -9.088,-7.745 -1.186,-14.377 -12.678,-4.836 -5.086,-12.508 -14.254,-0.16 -6.992,-9.285 -9.596,0.672 -10.697,-1.165 -6.049,-4.466 -8.779,5.828 -10.623,-5.539 -21.117,8.017 13.766,-11.972 14.262,-2.278 10.926,-2.785 14.756,4.846 12.988,-3.29 12.523,7.403 13.252,-0.733 6.51,11.681 13.195,1.523 7.139,12.987 8.299,4.531 2.203,16.637 7.391,7.01 -3.25,14.557 8.707,11.024 -8.164,11.812 8.73,7.383 -11.16,9.891 11.303,11.771 -13.65,4.402 8.891,12.625 -11.15,1.924 7.312,13.882 -12.566,-0.167 6.33,10.398 -13.783,-1.659 3.297,14.959 -10.416,-9.163 -3.568,18.13 -7.188,-13.018 -3.893,16.237 -8.873,-11.973 0.242,17.026 -9.807,-15.309 c 2.068,8.686 1.654,18.197 7.359,26.386 17.676,-2.392 29.229,-6.846 42.771,-19.877 12.334,-11.868 27.076,-36.613 31.068,-52.308 4.555,-17.91 4.695,-50.85 0.209,-69.084 C 522.282,71.848 516.67,63.462 506.643,49.136 497.059,38.957 487.633,28.204 475.469,20.945 457.613,10.29 434.717,7.417 414.367,7.694 c -11.268,0.154 -18.816,2.318 -25.553,4.768 -11.781,4.284 -21.203,13.629 -33.18,18.247 -3.906,1.505 -7.037,1.552 -10.113,-0.091 3.012,6.026 6.289,8.729 13.801,10.922 5.434,1.586 18.4,0.583 27.326,-0.241 9.582,-0.885 14.58,-3.734 27.621,-3.555 12.736,0.175 22.828,5.013 28.346,8.168 11.385,6.51 19.549,13.732 26.643,25.172 3.896,6.282 6.625,13.37 8.547,20.603 1.922,7.233 2.764,15.334 2.887,22.415 0.123,7.081 -0.418,13.402 -2.15,19.774 -4.051,14.918 -12.988,30.098 -31.346,27.753 -11.234,-1.436 -28.17,-22.522 -33.842,-30.258 C 401.909,115.758 390.133,98.481 375.752,85.479 366.984,77.554 354.979,72.1 343.19,71.021 c -22.117,-2.024 -28.676,2.177 -45.324,15.899 3.387,1.08 6.693,1.676 10.164,3.24 7.703,3.471 14.748,7.957 20.893,13.711 6.439,6.031 9.328,9.848 9.557,18.484 0.152,5.735 -4.566,10.333 -8.891,14.469 -2.646,2.533 -6.148,4.852 -8.291,6.818 -2.84,2.609 -6.357,5.463 -2.789,9.619 1.342,1.562 3.672,2.74 5.637,4.199 3.119,2.315 1.691,10.919 -2.418,13.201 -5.258,2.917 -11.541,2.591 -15.877,-1.314 5.473,-0.819 8.949,-1.545 8.807,-6.022 -0.082,-2.595 -3.381,-4.751 -6.619,-6.227 -7.809,-3.56 -13.707,-3.035 -21.479,-8.627 -7.85,-5.651 -8.023,-8.745 -10.145,-17.617 -3.785,0.396 -7.27,0.483 -12.331,2.159 -5.061,1.675 -10.654,5.663 -15.249,6.65 -11.572,2.49 -13.878,1.752 -20.211,0.113 -11.15,-2.886 -25.668,2.055 -40.09,6.668 -2.398,0.767 -12.097,0.026 -18.626,2.317 -10.084,3.538 -24.233,12.106 -32.405,18.988 -12.382,10.429 -28.654,41.64 -37.848,77.464 -0.966,10.89 2.131,18.227 -4.729,23.546 -6.86,5.319 -6.67,18.946 -8.996,22.768 -2.326,3.821 -5.019,2.132 -10.026,7.499 -5.007,5.367 -7.556,4.47 -7.43,14.618 4.315,-2.837 10.606,-6.135 16.13,-6.334 4.892,-0.177 4.944,6.264 17.5,-6.149 6.715,-6.641 19.616,-6.844 28.567,-9.773 8.952,-2.929 25.083,-8.965 41.239,-27.027 16.156,-18.062 23.887,-37.077 27.02,-64.567 0.499,4.874 1.365,10.371 -0.722,23.816 -2.087,13.445 -6.585,28.546 2.891,46.634 l 5.904,11.269 c -3.515,-4.797 -10.381,-12.622 -12.448,-18.198 l -4.768,-12.863 c -10.667,16.748 -13.119,19.744 -27.937,31.743 -0.59,7.444 -0.735,15.208 1.698,22.331 2.433,7.122 -1.445,15.332 0.406,20.023 1.851,4.691 6.132,2.021 7.53,6.77 1.398,4.749 -0.73,14.138 1.438,18.767 2.168,4.629 7.487,1.82 10.065,3.315 2.578,1.496 3.421,3.546 4.8,5.513 1.378,1.966 -0.539,6.614 2.265,8.123 2.803,1.51 7.176,0.231 10.093,1.68 2.917,1.449 3.36,4.932 2.661,8.053 -0.7,3.121 -3.817,4.553 -5.186,7.726 -1.368,3.174 -1.215,5.383 0.429,8.297 1.644,2.915 5.284,4.52 8.912,5.991 3.628,1.471 8.726,0.645 12.47,2.679 3.744,2.034 7.109,6.087 9.086,9.033 1.977,2.945 2.526,5.023 2.425,8.12 -0.102,3.096 -1.358,6.663 -3.011,9.654 -1.653,2.991 -5.3,6.631 0.394,12.343 5.694,5.711 5.484,3.249 8.746,6.954 -0.355,-6.409 -3.003,-11.63 -1.067,-16.455 1.937,-4.825 7.752,-5.664 10.817,-7.834 3.065,-2.171 4.83,-5.153 7.246,-7.729 -0.035,3.315 0.32,6.879 -0.057,9.375 -0.768,5.075 -2.266,9.58 5.297,10.394 3.407,0.366 6.642,-1.843 10.227,-3.169 -1.878,3.363 -5.144,6.067 -5.635,10.092 -0.491,4.023 0.099,8.443 2.885,12.436 2.787,3.991 7.599,6.955 11.125,9.301 3.525,2.347 5.414,2.535 8.123,3.804 0.133,3.956 -0.646,8.143 -0.195,11.869 0.451,3.726 1.625,7.024 3.779,10.104 2.156,3.081 5.613,4.848 8.869,7.126 -1.785,-4.157 -5.406,-8.101 -5.357,-12.471 0.049,-4.369 1.359,-7.466 5.621,-11.343 4.262,-3.878 14.24,-7.241 18.945,-11.011 4.705,-3.771 6.223,-6.081 7.912,-9.742 1.689,-3.661 1.219,-9.559 1.531,-12.85 1.549,4.61 1.77,6.043 2.273,10.866 0.506,4.824 -2.811,11.59 -4.215,15.161 5.82,-2.811 9.514,-7.304 11.379,-11.695 1.248,0.74 0.619,2.769 1.078,6.679 2.074,-2.064 4.432,-3.652 6.52,-5.6 2.09,-1.946 4.379,-3.658 5.416,-6.375 1.035,-2.717 0.611,-5.606 -0.16,-8.763 -0.771,-3.157 -4.299,-6.818 -6.199,-10.271 -1.898,-3.452 0.336,-6.841 0.207,-11.001 -3.801,-0.653 -7.029,-2.589 -11.398,-1.96 -4.371,0.628 -9.377,5.533 -13.844,5.59 -4.467,0.057 -6.975,-4.128 -10.637,-5.278 -3.662,-1.15 -7.367,-1.024 -11.049,-1.536 4.664,-4.468 22.766,-6.596 35.148,-8.615 10.895,-1.777 21.707,-2.804 32.746,-2.959 4.93,-0.07 11.266,1.558 14.689,0.574 3.426,-0.982 2.695,-3.315 3.711,-5.858 2.842,-7.108 1.441,-13.438 -0.105,-20.596 -9.91,-1.162 -20.236,-2.584 -30.221,-1.817 -9.762,0.75 -21.322,5.391 -31.391,5.705 -8.754,0.272 -21.717,-1.677 -29.234,-6.259 -9.186,-5.599 -16.293,-17.624 -18.816,-21.485 -4.109,-6.289 -9.292,-18.627 -12.446,-24.268 -3.152,-5.641 -3.847,-7.219 -6.47,-9.574 -2.623,-2.354 -6.216,-2.536 -9.323,-3.805 3.582,0.366 7.493,-0.768 10.747,1.098 4.889,2.805 10.361,14.431 13.403,19.49 3.223,-10.804 2.471,-15.052 11.797,-21.144 -7.516,8.424 -7.703,14.805 -9.535,24.723 6.25,10.258 14.939,26.598 26.309,31.132 4.107,1.639 11.16,2.667 15.6,3.216 13.818,1.711 27.146,-2.668 40.717,-6.019 9.92,-2.45 19.986,-1.463 32.051,-0.754 4.096,0.24 13.754,-2.224 15.754,-6.367 1.08,-2.235 1,-4.921 -0.551,-7.303 -1.553,-2.382 -5.689,-3.534 -7.906,-5.678 -2.217,-2.144 -3.492,-4.689 -5.238,-7.034 -9.215,1.768 -16.795,2.447 -23.635,2.633 4.906,-2.021 9.613,-3.174 14.719,-5.171 5.106,-1.997 10.904,-5.275 15.025,-7.995 4.121,-2.721 6.752,-4.299 9.734,-7.465 2.98,-3.168 6.803,-6.431 9,-10.303 2.199,-3.872 2.539,-8.203 2.662,-12.995 0.123,-4.791 -0.084,-11.514 -1.932,-15.374 -1.846,-3.859 -5.406,-5.03 -8.266,-5.943 -2.861,-0.913 -4.82,1.396 -7.795,1.708 -2.977,0.312 -5.758,2.188 -10.062,0.164 -4.304,-2.024 -9.406,-6.144 -13.758,-12.259 -4.35,-6.116 -7.461,-16.112 -11.896,-23.802 -7.645,-13.256 -17.172,-25.639 -26.283,-37.922 -0.75,-3.029 -1.877,-7.215 -2.252,-11.324 -0.654,-7.16 -0.777,-14.598 1.445,-21.578 1.703,-5.347 4.18,-10.995 9.779,-13.188 2.24,-0.878 5.074,-1.226 7.076,-0.484 2.004,0.741 3.969,3.002 3.182,5.614 -0.865,2.872 -2.855,2.95 -4.207,4.4 -2.295,2.46 -3.213,4.265 -4.08,7.332 2.48,-0.04 5.832,-0.229 7.869,0.307 2.658,0.7 5.133,2.462 6.482,6.228 -3.172,-2.813 -4.748,-4.104 -8.707,-4.204 -1.814,-0.045 -4.018,0.604 -6.025,0.906 -0.75,2.44 -1.191,5.432 -2.25,7.32 -1.059,1.888 -3.121,1.435 -3.895,3.641 -0.774,2.202 -0.819,5.788 -0.429,8.683 z m 27.715,-3.307 c 1.215,0.479 1.678,0.584 3.217,1.755 1.539,1.171 3.662,2.34 4.881,5.138 1.221,2.799 1.164,7.127 0.904,8.89 -1.07,-0.314 -2.529,-0.102 -3.639,-1.051 -1.107,-0.949 -1.768,-3.098 -3.188,-4.018 -1.422,-0.919 -2.607,-0.718 -4.178,-0.917 0.807,2.296 1.199,4.593 0.824,6.675 -0.814,4.545 -3.486,6.847 -7.812,7.391 -1.889,0.237 -4.889,-0.385 -6.533,-0.684 0.762,1.702 2.053,3.193 2.816,4.895 3.658,-0.529 6.369,-0.454 8.336,-1.374 1.967,-0.92 4.076,-2.981 6.6,-3.854 2.525,-0.873 4.777,-0.859 7.539,-1.29 -2.176,1.875 -3.604,3.751 -5.777,5.626 1.594,4.633 3.188,9.265 4.781,13.897 3.379,2.114 6.549,3.228 10.807,5.838 4.26,2.611 9.367,7.281 14.914,9.828 5.547,2.547 8.85,3.933 14.646,5.026 5.795,1.093 10.406,5.787 16.109,6.55 5.703,0.763 16.355,0.917 20.75,0.488 4.99,-0.487 11.473,-3.062 12.055,-8.533 -4.184,1.032 -10.574,0.106 -13.801,-7.767 -1.432,-3.496 -0.73,-9.925 -2.922,-14.059 -2.191,-4.135 -5.246,-5.462 -8.896,-10.556 -3.65,-5.094 -9.621,-13.129 -12.973,-19.954 -3.35,-6.824 -4.139,-14.554 -6.973,-20.669 -2.834,-6.114 -7.109,-11.053 -10.422,-15.766 -7.234,-10.3 -13.068,-17.339 -24.986,-22.535 -5.732,-2.499 -12.258,-3.165 -18.387,-4.748 -2.494,1.117 -5.914,2.351 -6.521,5.268 -0.607,2.917 0.559,7.225 2.676,9.415 3.543,3.661 8.793,7.618 10.857,13.437 1.326,3.734 1.711,16.252 0.562,19.649 -1.192,3.527 -3.963,5.66 -6.266,8.009 z m 1.154,29.629 c -1.107,0.955 -1.951,1.936 -3.732,2.729 -1.779,0.793 -4.209,0.998 -6.57,1.588 3.311,5.154 6.789,10.362 9.961,15.781 3.174,5.418 5.924,11.351 8.953,17.025 -0.143,-3.252 0.049,-6.719 -0.424,-9.758 -0.473,-3.038 -1.85,-5.697 -3.215,-10.258 -1.363,-4.561 -3.041,-10.766 -4.973,-17.107 z M 279.229,113.611 c -0.467,5.07 0.391,12.996 1.441,17.96 1.258,5.942 2.469,9.023 7.291,12.603 8.83,6.555 14.467,5.45 21.26,9.251 3.232,1.809 7.328,4.841 8.523,8.046 1.195,3.205 -0.789,6.685 -3.24,8.053 4.287,0.638 9.094,-4.195 7.088,-9.157 -0.988,-2.442 -5.691,-3.53 -7.133,-5.994 -1.439,-2.463 -1.436,-4.999 -0.758,-7.501 1.225,-4.51 10.148,-8.608 13.301,-12.173 4.852,-5.486 6.715,-10.075 3.967,-17.14 -3.859,-9.925 -18.768,-17.889 -27.691,-21.784 -4.086,-1.783 -6.377,-1.91 -9.564,-2.865 6.525,3.824 13.404,6.87 16.705,15.418 2.756,7.139 0.369,9.829 0.461,16.045 0.043,2.882 3.838,4.323 5.523,6.144 1.467,1.583 1.348,2.758 0.176,4.943 -0.129,-1.971 -0.971,-3.442 -2.484,-4.513 -2.498,-1.771 -5.189,-1.39 -6.52,-5.021 -2.02,-5.52 1.986,-10.748 -2.518,-16.946 -3.369,-4.637 -7.85,-9.827 -13.895,-9.963 -2.861,-0.065 -5.012,0.367 -8.068,1.271 l -4.074,-4.903 -0.094,-0.064 C 270.639,87.758 264.969,81.525 253.344,76.327 241.719,71.13 235.99,70.343 222.661,70.639 c -13.329,0.295 -26.557,1.41 -41.995,14.723 -15.437,13.313 -55.224,64.292 -64.873,70.744 -9.648,6.452 -11.785,8.638 -23.841,8.641 C 79.896,164.75 61.08,147.697 60.343,126.385 59.605,105.072 59.309,97.497 74.124,71.822 88.94,46.146 115.78,38.262 135.694,35.6 c 19.915,-2.662 31.882,4.352 46.613,4.385 14.73,0.034 29.288,-2.509 33.581,-14.224 -2.101,1.251 -4.916,2.661 -12.832,2.246 C 195.14,27.592 184.164,18.427 171.817,12.286 159.47,6.146 145.73,5.427 128.107,5.094 110.484,4.761 88.494,6.108 66.708,17.869 44.922,29.63 30.051,42.109 17.415,65.127 4.779,88.146 2.891,106.94 4.928,134.811 c 2.037,27.871 10.633,48.599 27.184,68.998 16.551,20.399 33.092,30.38 62.918,34.091 l 6.279,-27.696 -11.209,16.086 0.277,-17.891 -10.139,12.581 -4.447,-17.062 -8.214,13.679 -4.08,-19.05 -11.903,9.627 3.768,-15.719 -15.75,1.743 7.235,-10.926 -14.361,0.175 L 40.842,168.86 28.1,166.837 38.26,153.57 22.66,148.945 35.576,136.577 22.823,126.184 32.798,118.426 23.47,106.014 33.42,94.431 29.706,79.135 38.155,71.77 40.67,54.289 50.152,49.527 58.31,35.881 73.389,34.28 l 7.44,-12.274 15.145,0.771 14.312,-7.779 14.843,3.457 16.86,-5.092 12.487,2.926 16.296,2.395 15.733,12.58 -24.133,-8.424 -12.14,5.821 -10.035,-6.125 -6.909,4.693 -12.225,1.224 -10.963,-0.708 -7.992,9.756 -16.291,0.168 -5.811,13.143 -14.486,5.082 -1.355,15.107 -10.388,8.138 3.461,14.216 -8.971,14.765 6.882,12.915 -6.773,11.82 9.011,5.88 -2.044,18.998 12.532,3.158 2.823,14.093 13.656,-1.419 8.484,9.656 10.486,-10.239 c 19.116,-9.532 26.988,-14.864 41.886,-30.977 16.959,-18.343 26.679,-35.302 49.269,-47.861 16.202,-9.008 29.417,-12.25 47.617,-9.105 17.088,2.952 22.81,13.202 35.395,24 1.334,-2.415 1.605,-3.055 3.803,-4.833 -0.69,3.136 -1.786,6.389 -2.065,9.405 z"
         style="fill-rule:evenodd" />
    </g>
  </g>
</svg>
